<?xml version="1.0" encoding="UTF-8"?>
<svg version="1.1" xmlns="http://www.w3.org/2000/svg" width="500" height="500">
<path d="M0 0 C165 0 330 0 500 0 C500 165 500 330 500 500 C335 500 170 500 0 500 C0 335 0 170 0 0 Z " fill="#000000" transform="translate(0,0)"/>
<path d="M0 0 C0.82035736 -0.01053406 1.64071472 -0.02106812 2.4859314 -0.03192139 C41.60743849 -0.42002285 80.40737876 17.22699854 108.2265625 44.33984375 C112.63016193 48.77175781 116.55070192 53.51598348 120.3125 58.5 C120.97507812 59.34691406 121.63765625 60.19382813 122.3203125 61.06640625 C133.73067412 76.07886242 142.17745924 93.38590149 147.3125 111.5 C147.54533691 112.31500977 147.77817383 113.13001953 148.01806641 113.96972656 C151.59024095 127.02329998 152.77559886 139.6594446 152.75 153.125 C152.75013092 153.83725739 152.75026184 154.54951477 152.75039673 155.28335571 C152.70583238 168.76611569 151.29326546 181.71654337 147.25 194.625 C146.94763428 195.60001465 146.64526855 196.5750293 146.33374023 197.57958984 C133.6666762 237.08137631 107.59473083 268.6253458 71.453125 288.91796875 C48.62384666 300.41779179 25.07134823 306.12447711 -0.4375 305.9375 C-1.31835266 305.93445862 -2.19920532 305.93141724 -3.10675049 305.92828369 C-16.01641764 305.86234478 -28.26463898 305.29443035 -40.6875 301.5 C-41.81623535 301.17854004 -41.81623535 301.17854004 -42.96777344 300.85058594 C-54.17115343 297.6342374 -64.50106507 293.13864498 -74.6875 287.5 C-75.66444824 286.96004395 -75.66444824 286.96004395 -76.66113281 286.40917969 C-85.3660907 281.53285112 -93.20483213 276.1429935 -100.6875 269.5 C-101.47253906 268.81333252 -101.47253906 268.81333252 -102.2734375 268.11279297 C-109.84926228 261.46393971 -116.60951975 254.58395397 -122.6875 246.5 C-123.57308594 245.33791016 -123.57308594 245.33791016 -124.4765625 244.15234375 C-148.79377686 210.89660996 -158.46293158 169.43409288 -152.91870117 128.703125 C-152.32815025 125.25777242 -151.55999393 121.88400156 -150.6875 118.5 C-150.49945801 117.73187988 -150.31141602 116.96375977 -150.11767578 116.17236328 C-145.70112959 98.54482768 -138.28912964 81.31872231 -127.6875 66.5 C-126.69363281 65.08267578 -126.69363281 65.08267578 -125.6796875 63.63671875 C-105.00780599 35.07395773 -74.8948933 13.63235766 -40.6875 4.5 C-39.96385254 4.29262207 -39.24020508 4.08524414 -38.49462891 3.87158203 C-25.8215582 0.35360212 -13.06134809 0.08505596 0 0 Z " fill="#DFDFDF" transform="translate(245.6875,97.5)"/>
<path d="M0 0 C2.22574335 0.22451458 4.45581519 0.40782878 6.6875 0.5625 C8.770625 0.706875 10.85375 0.85125 13 1 C13 9.58 13 18.16 13 27 C12.34 27 11.68 27 11 27 C10.84144531 26.34773438 10.68289062 25.69546875 10.51953125 25.0234375 C8.64282754 17.99357499 6.61027713 13.6602042 0.625 9.25 C-6.75154865 5.73735779 -14.81694274 4.33188962 -22.71875 6.875 C-29.51222027 9.9852635 -33.97660253 14.04517768 -37.375 20.6875 C-38.85745287 28.54450021 -39.02129132 35.96274019 -35 43 C-32.04594721 47.09385855 -28.61733991 50.0952576 -24.625 53.125 C-23.36706708 54.09619821 -22.10925802 55.06755688 -20.8515625 56.0390625 C-19.8910498 56.77624512 -19.8910498 56.77624512 -18.91113281 57.52832031 C-15.33723428 60.28042307 -11.80029884 63.07965485 -8.2590332 65.87353516 C-5.32073629 68.18820862 -2.37134669 70.48501424 0.60546875 72.75 C14.67660381 83.50533616 27.65499591 95.06210657 32 113 C32.41483637 116.49137081 32.47772871 119.924193 32.4375 123.4375 C32.42992676 124.36401367 32.42235352 125.29052734 32.41455078 126.24511719 C32.25441502 132.86795836 31.51103556 138.26458166 28 144 C27.56429687 144.76054687 27.12859375 145.52109375 26.6796875 146.3046875 C24.08527381 150.51529332 21.39896253 153.56280196 17.625 156.75 C14.11520002 160.13204864 13.39922077 162.45134642 13.25 167.3125 C14.0135133 178.31981672 17.66680822 186.6656497 26 194 C33.99579301 199.75006102 41.07381003 202.34817553 50.875 202.25 C51.63941406 202.25773438 52.40382813 202.26546875 53.19140625 202.2734375 C63.80317219 202.23740434 74.01818054 199.05642275 81.875 191.6875 C85.11439154 188.18133504 87.25447864 184.425848 89 180 C89.35707031 179.09894531 89.71414063 178.19789063 90.08203125 177.26953125 C92.52969162 168.55169411 92.30339798 157.40155298 88.31640625 149.19140625 C80.80567142 136.68837289 69.18572179 128.20584223 57.82763672 119.41601562 C53.64393138 116.17456612 49.48170581 112.90595922 45.33203125 109.62109375 C43.20305535 107.93650079 41.05786464 106.29192085 38.88671875 104.66015625 C31.9429926 99.313769 25.51530628 93.02735655 24 84 C23.33268043 72.2577421 23.60049669 62.38280261 31.27734375 52.9140625 C37.45139617 46.05400426 43.90360385 40.50607765 53.45117188 39.82519531 C69.72569889 39.24189963 69.72569889 39.24189963 75 41 C78.96 41.33 82.92 41.66 87 42 C87 50.58 87 59.16 87 68 C86.34 68 85.68 68 85 68 C84.90203125 67.41992188 84.8040625 66.83984375 84.703125 66.2421875 C83.70423228 61.02383417 82.66142995 57.02757295 79 53 C70.76704138 48.01155709 63.15845962 45.54772465 53.5546875 47.49609375 C47.80236419 49.22179074 43.01954675 51.69234491 39.78125 56.99609375 C36.23687072 63.89497486 34.87042203 69.80719193 36.54296875 77.49609375 C39.04565369 85.02764797 43.87360985 89.24991978 50 94 C50.61601074 94.47808105 51.23202148 94.95616211 51.86669922 95.44873047 C54.67325696 97.61535202 57.48915776 99.76904604 60.31689453 101.90795898 C68.03601153 107.74699609 75.54817372 113.82480786 83 120 C83.8353125 120.68964844 84.670625 121.37929688 85.53125 122.08984375 C95.97250045 130.94482731 105.79911855 142.8386622 107 157 C107.78374257 171.92594176 105.69207553 183.67693826 95.75 195.25 C86.03246982 205.46381261 74.04764224 210.5852602 59.93359375 211.23828125 C44.38182025 211.62297848 31.75655491 208.50310862 19.75 198.0390625 C10.89357054 189.01489763 7.04570493 177.47744704 7 165 C6.0925 165.45375 5.185 165.9075 4.25 166.375 C-8.87327858 171.91302356 -25.74135012 171.87834687 -39 167 C-51.59702133 161.65850686 -59.75248565 154.17210839 -65.125 141.54296875 C-68.63147488 131.35227613 -68.53327166 118.42430761 -64.27734375 108.50390625 C-58.03720615 96.27170992 -58.03720615 96.27170992 -54 93 C-53.01 93 -52.02 93 -51 93 C-52.12571279 95.26766183 -53.27113998 97.52238653 -54.4375 99.76953125 C-60.56929591 111.71120379 -63.41280086 123.47871128 -59.80859375 136.8515625 C-55.93403745 147.14627732 -49.27389122 153.40865893 -39.625 158.375 C-30.02653886 162.67775844 -17.47203466 162.50288004 -7.4375 159.4375 C2.63751966 155.3934012 9.46781168 149.96183967 14 140 C18.13246515 130.0380878 18.31843539 120.65558223 14.26953125 110.640625 C11.18225565 104.21909175 7.29170231 98.78773067 2 94 C1.47277344 93.5153125 0.94554687 93.030625 0.40234375 92.53125 C-7.25090046 85.64170532 -15.52572766 79.46288084 -23.6640625 73.1640625 C-48.86776283 53.5998265 -48.86776283 53.5998265 -51 43 C-51.75685431 33.70801762 -52.14224071 25.13441561 -47 17 C-46.443125 15.989375 -45.88625 14.97875 -45.3125 13.9375 C-34.45569978 0.14642946 -17.13272093 -5.71090698 0 0 Z " fill="#050505" transform="translate(223,165)"/>
</svg>
